<svg width="128pt" height="128pt" viewBox="0 0 128 128" xmlns="http://www.w3.org/2000/svg">
  <path
    d="M4 14v102h120V14zm0-4h120c2.21 0 4 1.79 4 4v102c0 2.21-1.79 4-4 4H4c-2.21 0-4-1.79-4-4V14c0-2.21 1.79-4 4-4zm5 15c-2.21 0-4-1.79-4-4s1.79-4 4-4 4 1.79 4 4-1.79 4-4 4zm0-2a2 2 0 10-2-2c0 1.105.895 2 2 2zm10 2c-2.21 0-4-1.79-4-4s1.79-4 4-4 4 1.79 4 4-1.79 4-4 4zm0-2a2 2 0 10-2-2c0 1.105.895 2 2 2zm10 2c-2.21 0-4-1.79-4-4s1.79-4 4-4 4 1.79 4 4-1.79 4-4 4zm0-2a2 2 0 10-2-2c0 1.105.895 2 2 2zM4 28h120v4H4zm12 12h16c2.21 0 4 1.79 4 4v10c0 2.21-1.79 4-4 4H16c-2.21 0-4-1.79-4-4V44c0-2.21 1.79-4 4-4zm0 2c-1.105 0-2 .895-2 2v10c0 1.105.895 2 2 2h16c1.105 0 2-.895 2-2V44c0-1.105-.895-2-2-2zm25 2h18c.55 0 1 .45 1 1s-.45 1-1 1H41c-.55 0-1-.45-1-1s.45-1 1-1zm0 4h18c.55 0 1 .45 1 1s-.45 1-1 1H41c-.55 0-1-.45-1-1s.45-1 1-1zm0 4h18c.55 0 1 .45 1 1s-.45 1-1 1H41c-.55 0-1-.45-1-1s.45-1 1-1zm31-12h16c2.21 0 4 1.79 4 4v10c0 2.21-1.79 4-4 4H72c-2.21 0-4-1.79-4-4V44c0-2.21 1.79-4 4-4zm0 2c-1.105 0-2 .895-2 2v10c0 1.105.895 2 2 2h16c1.105 0 2-.895 2-2V44c0-1.105-.895-2-2-2zm25 2h18c.55 0 1 .45 1 1s-.45 1-1 1H97c-.55 0-1-.45-1-1s.45-1 1-1zm0 4h18c.55 0 1 .45 1 1s-.45 1-1 1H97c-.55 0-1-.45-1-1s.45-1 1-1zm0 4h18c.55 0 1 .45 1 1s-.45 1-1 1H97c-.55 0-1-.45-1-1s.45-1 1-1zM16 64h16c2.21 0 4 1.79 4 4v10c0 2.21-1.79 4-4 4H16c-2.21 0-4-1.79-4-4V68c0-2.21 1.79-4 4-4zm0 2c-1.105 0-2 .895-2 2v10c0 1.105.895 2 2 2h16c1.105 0 2-.895 2-2V68c0-1.105-.895-2-2-2zm25 2h18c.55 0 1 .45 1 1s-.45 1-1 1H41c-.55 0-1-.45-1-1s.45-1 1-1zm0 4h18c.55 0 1 .45 1 1s-.45 1-1 1H41c-.55 0-1-.45-1-1s.45-1 1-1zm0 4h18c.55 0 1 .45 1 1s-.45 1-1 1H41c-.55 0-1-.45-1-1s.45-1 1-1zm31-12h16c2.21 0 4 1.79 4 4v10c0 2.21-1.79 4-4 4H72c-2.21 0-4-1.79-4-4V68c0-2.21 1.79-4 4-4zm0 2c-1.105 0-2 .895-2 2v10c0 1.105.895 2 2 2h16c1.105 0 2-.895 2-2V68c0-1.105-.895-2-2-2zm25 2h18c.55 0 1 .45 1 1s-.45 1-1 1H97c-.55 0-1-.45-1-1s.45-1 1-1zm0 4h18c.55 0 1 .45 1 1s-.45 1-1 1H97c-.55 0-1-.45-1-1s.45-1 1-1zm0 4h18c.55 0 1 .45 1 1s-.45 1-1 1H97c-.55 0-1-.45-1-1s.45-1 1-1zM16 88h16c2.21 0 4 1.79 4 4v10c0 2.21-1.79 4-4 4H16c-2.21 0-4-1.79-4-4V92c0-2.21 1.79-4 4-4zm0 2c-1.105 0-2 .895-2 2v10c0 1.105.895 2 2 2h16c1.105 0 2-.895 2-2V92c0-1.105-.895-2-2-2zm25 2h18c.55 0 1 .45 1 1s-.45 1-1 1H41c-.55 0-1-.45-1-1s.45-1 1-1zm0 4h18c.55 0 1 .45 1 1s-.45 1-1 1H41c-.55 0-1-.45-1-1s.45-1 1-1zm0 4h18c.55 0 1 .45 1 1s-.45 1-1 1H41c-.55 0-1-.45-1-1s.45-1 1-1zm31-12h16c2.21 0 4 1.79 4 4v10c0 2.21-1.79 4-4 4H72c-2.21 0-4-1.79-4-4V92c0-2.21 1.79-4 4-4zm0 2c-1.105 0-2 .895-2 2v10c0 1.105.895 2 2 2h16c1.105 0 2-.895 2-2V92c0-1.105-.895-2-2-2zm25 2h18c.55 0 1 .45 1 1s-.45 1-1 1H97c-.55 0-1-.45-1-1s.45-1 1-1zm0 4h18c.55 0 1 .45 1 1s-.45 1-1 1H97c-.55 0-1-.45-1-1s.45-1 1-1zm0 4h18c.55 0 1 .45 1 1s-.45 1-1 1H97c-.55 0-1-.45-1-1s.45-1 1-1z"
    fill="#fff" fill-rule="nonzero" />/>
</svg>