<svg xmlns="http://www.w3.org/2000/svg" viewBox="0 0 64 64">
  <path
    d="M2 7v51h60V7H2zm0-2h60a2 2 0 012 2v51a2 2 0 01-2 2H2a2 2 0 01-2-2V7a2 2 0 012-2zm2.5 7.5a2 2 0 110-4 2 2 0 010 4zm0-1a1 1 0 100-2 1 1 0 000 2zm5 1a2 2 0 110-4 2 2 0 010 4zm0-1a1 1 0 100-2 1 1 0 000 2zm5 1a2 2 0 110-4 2 2 0 010 4zm0-1a1 1 0 100-2 1 1 0 000 2zM2 14h60v2H2v-2zm5 6a1 1 0 00-1 1v11a1 1 0 001 1h24a1 1 0 001-1V21a1 1 0 00-1-1H7zm0-1h24a2 2 0 012 2v11a2 2 0 01-2 2H7a2 2 0 01-2-2V21a2 2 0 012-2zm30 2h21a1 1 0 010 2H37a1 1 0 010-2zm-.5 4h17a.5.5 0 110 1h-17a.5.5 0 110-1zm0 2h17a.5.5 0 110 1h-17a.5.5 0 110-1zm0 2h17a.5.5 0 110 1h-17a.5.5 0 110-1zm0 2h7a.5.5 0 110 1h-7a.5.5 0 110-1zM57 38H45a1 1 0 00-1 1v7a1 1 0 001 1h12a1 1 0 001-1v-7a1 1 0 00-1-1zm0-1a2 2 0 012 2v7a2 2 0 01-2 2H45a2 2 0 01-2-2v-7a2 2 0 012-2h12zm-19 1H26a1 1 0 00-1 1v7a1 1 0 001 1h12a1 1 0 001-1v-7a1 1 0 00-1-1zm0-1a2 2 0 012 2v7a2 2 0 01-2 2H26a2 2 0 01-2-2v-7a2 2 0 012-2h12zm-19 1H7a1 1 0 00-1 1v7a1 1 0 001 1h12a1 1 0 001-1v-7a1 1 0 00-1-1zm0-1a2 2 0 012 2v7a2 2 0 01-2 2H7a2 2 0 01-2-2v-7a2 2 0 012-2h12zM5.5 50h15a.5.5 0 110 1h-15a.5.5 0 110-1zm0 2h15a.5.5 0 110 1h-15a.5.5 0 110-1zm0 2h7a.5.5 0 110 1h-7a.5.5 0 110-1zm19-4h15a.5.5 0 110 1h-15a.5.5 0 110-1zm0 2h15a.5.5 0 110 1h-15a.5.5 0 110-1zm0 2h7a.5.5 0 110 1h-7a.5.5 0 110-1zm19-4h15a.5.5 0 110 1h-15a.5.5 0 110-1zm0 2h15a.5.5 0 110 1h-15a.5.5 0 110-1zm0 2h7a.5.5 0 110 1h-7a.5.5 0 110-1z"
    fill="#fff" fill-rule="nonzero" />
</svg>