<svg xmlns="http://www.w3.org/2000/svg" xmlns:xlink="http://www.w3.org/1999/xlink" width="2000" zoomAndPan="magnify" viewBox="0 0 1500 1499.999933" height="2000" preserveAspectRatio="xMidYMid meet" version="1.0"><path fill="#bdd547" d="M 1240.421875 70.179688 C 1187.320312 43.984375 1127.953125 56.316406 1077.082031 81.703125 C 1052.847656 93.800781 1031.304688 110.164062 1010.582031 127.484375 C 990.75 144.058594 972.082031 162.011719 954.582031 181.027344 C 917.535156 221.28125 885.066406 266.015625 856.824219 312.828125 C 806.632812 396.035156 768.367188 486.453125 734.910156 577.757812 C 716.25 577.554688 697.601562 576.34375 679.023438 574.109375 C 635.011719 567.664062 592 555.71875 550.820312 538.917969 C 508.578125 520.558594 468.675781 497.214844 431.90625 469.476562 C 396.835938 441.796875 365.011719 410.210938 337.277344 375.175781 C 312.097656 341.800781 290.761719 305.6875 274.0625 267.347656 C 273.285156 265.445312 272.484375 263.550781 271.730469 261.640625 C 267.484375 250.898438 262.363281 242.070312 252.035156 236.027344 C 242.847656 230.648438 229.308594 228.371094 219.011719 231.707031 C 208.636719 235.0625 198.632812 241.488281 193.398438 251.402344 C 188.34375 260.964844 184.917969 273.902344 189.078125 284.425781 C 225.550781 376.707031 284.546875 458.933594 361.273438 522.105469 C 437.40625 584.789062 527.488281 631.066406 624.382812 651.226562 C 651.15625 656.796875 678.242188 660.363281 705.40625 662.058594 C 672.777344 760.367188 646.078125 860.636719 625.488281 962.152344 C 610.648438 1035.292969 598.875 1109.128906 590.207031 1183.3125 C 580.410156 1167.511719 560.730469 1157.6875 542.183594 1163.6875 C 531.8125 1167.042969 521.808594 1173.46875 516.570312 1183.382812 C 510.894531 1194.125 510.179688 1204.464844 512.25 1216.40625 C 525.28125 1291.492188 548.464844 1363.804688 579.363281 1433.398438 C 581.597656 1436.289062 583.832031 1439.179688 586.066406 1442.070312 C 589.945312 1446.25 594.542969 1449.203125 599.859375 1450.929688 C 608.375 1454.523438 618.71875 1456.019531 627.761719 1453.09375 C 637.820312 1449.835938 646.101562 1443.609375 651.648438 1435.445312 C 656.949219 1431.925781 661.441406 1427.265625 664.394531 1421.671875 C 698.554688 1356.914062 732.71875 1292.160156 766.878906 1227.402344 C 777.332031 1207.589844 772.574219 1179.898438 751.503906 1168.769531 C 731.707031 1158.308594 704.035156 1162.972656 692.867188 1184.144531 C 685.761719 1197.613281 678.652344 1211.089844 671.546875 1224.558594 C 674.101562 1199.507812 677 1174.492188 680.28125 1149.519531 C 691.984375 1064.007812 707.863281 979.082031 728.019531 895.15625 C 747.050781 815.898438 769.878906 737.5625 796.328125 660.464844 C 837.265625 656.445312 877.804688 648.015625 917.140625 635.003906 C 1011.117188 603.921875 1097.746094 550.316406 1166.839844 479.332031 C 1201.164062 444.070312 1231.644531 404.242188 1256.085938 361.503906 C 1282.375 315.527344 1303.25 266.113281 1309.03125 213.15625 C 1315.09375 157.660156 1292.980469 96.101562 1240.421875 70.179688 Z M 1144.601562 374.851562 C 1116.949219 409.847656 1085.207031 441.398438 1050.214844 469.046875 C 1013.4375 496.824219 973.523438 520.203125 931.265625 538.605469 C 898.359375 552.0625 864.289062 562.441406 829.457031 569.394531 C 836.867188 550.207031 844.53125 531.117188 852.46875 512.148438 C 879.730469 448.230469 910.679688 385.660156 948.824219 327.480469 C 958.832031 312.21875 969.371094 297.3125 980.390625 282.765625 C 1010.519531 244.390625 1044.507812 209.042969 1082.796875 178.753906 C 1097.320312 168.113281 1112.859375 158.949219 1129.269531 151.539062 C 1140.609375 147.144531 1152.257812 143.675781 1164.226562 141.515625 C 1171.394531 140.851562 1178.566406 140.742188 1185.742188 141.292969 C 1189.824219 142.117188 1193.832031 143.1875 1197.777344 144.539062 C 1200.800781 146.085938 1203.722656 147.792969 1206.554688 149.675781 C 1209.160156 152 1211.621094 154.460938 1213.941406 157.066406 C 1216.003906 160.160156 1217.859375 163.363281 1219.527344 166.679688 C 1221.359375 171.925781 1222.765625 177.273438 1223.789062 182.730469 C 1224.585938 192.34375 1224.394531 201.96875 1223.460938 211.578125 C 1220.3125 230.808594 1214.621094 249.429688 1207.394531 267.515625 C 1190.808594 305.671875 1169.628906 341.621094 1144.601562 374.851562 Z M 1144.601562 374.851562 " fill-opacity="1" fill-rule="nonzero"/></svg>