<svg xmlns="http://www.w3.org/2000/svg" xmlns:xlink="http://www.w3.org/1999/xlink" width="2000" zoomAndPan="magnify" viewBox="0 0 1500 1499.999933" height="2000" preserveAspectRatio="xMidYMid meet" version="1.0"><defs><clipPath id="9a87a63c8d"><path d="M 119.289062 40.117188 L 1406.289062 40.117188 L 1406.289062 1432.117188 L 119.289062 1432.117188 Z M 119.289062 40.117188 " clip-rule="nonzero"/></clipPath></defs><g clip-path="url(#9a87a63c8d)"><path fill="#24577e" d="M 718.273438 360.824219 L 647.453125 299.054688 L 647.179688 298.78125 L 646.230469 297.914062 L 645.890625 297.636719 C 636.734375 288.871094 632.164062 277.15625 631.953125 265.316406 C 631.746094 253.792969 635.753906 242.082031 643.75 232.925781 L 644.023438 232.585938 L 644.953125 231.574219 L 645.230469 231.300781 C 654.171875 221.957031 665.765625 217.335938 677.582031 217.007812 C 689.488281 216.679688 701.5625 220.792969 711.15625 228.894531 L 739.332031 252.683594 L 807.96875 153.574219 C 815.398438 142.847656 826.554688 136.128906 838.527344 133.953125 C 850.441406 131.792969 863.203125 134.152344 873.902344 141.5625 C 884.632812 148.988281 891.363281 160.148438 893.53125 172.117188 C 895.691406 184.03125 893.328125 196.789062 885.914062 207.5 L 786.699219 350.773438 C 779.355469 361.375 768.417969 368.070312 756.667969 370.328125 C 744.964844 372.582031 732.355469 370.421875 721.632812 363.34375 L 721.289062 363.140625 L 720.8125 362.808594 L 720.265625 362.398438 L 719.808594 362.050781 L 719.328125 361.710938 L 718.816406 361.296875 Z M 763.109375 818.675781 C 799.847656 818.675781 833.140625 833.59375 857.25 857.699219 L 857.316406 857.769531 C 881.421875 881.878906 896.34375 915.171875 896.34375 951.902344 C 896.34375 988.640625 881.421875 1021.929688 857.316406 1046.039062 L 857.285156 1046.074219 L 857.316406 1046.109375 C 833.210938 1070.21875 799.894531 1085.132812 763.109375 1085.132812 C 726.398438 1085.132812 693.085938 1070.207031 668.941406 1046.074219 L 668.90625 1046.109375 C 644.796875 1022 629.882812 988.6875 629.882812 951.902344 C 629.882812 915.121094 644.796875 881.808594 668.90625 857.699219 C 669.246094 857.359375 669.605469 857.03125 669.964844 856.726562 C 693.988281 833.195312 726.871094 818.675781 763.109375 818.675781 Z M 832.710938 882.308594 C 814.921875 864.535156 790.300781 853.535156 763.109375 853.535156 C 736.347656 853.535156 712.089844 864.1875 694.367188 881.46875 L 693.550781 882.34375 C 675.753906 900.136719 664.742188 924.738281 664.742188 951.902344 C 664.742188 979.070312 675.753906 1003.671875 693.550781 1021.46875 L 693.515625 1021.503906 L 693.550781 1021.535156 C 711.300781 1039.285156 735.894531 1050.273438 763.109375 1050.273438 C 790.277344 1050.273438 814.882812 1039.261719 832.675781 1021.46875 L 832.710938 1021.503906 C 850.484375 1003.707031 861.484375 979.09375 861.484375 951.902344 C 861.484375 924.710938 850.480469 900.097656 832.710938 882.308594 Z M 524.183594 1353.617188 C 603.804688 1382.667969 683.460938 1397.195312 763.125 1397.195312 C 842.789062 1397.195312 922.4375 1382.667969 1002.039062 1353.617188 C 1002.402344 1353.488281 1002.691406 1353.261719 1002.867188 1353 C 1003.039062 1352.738281 1003.132812 1352.382812 1003.121094 1351.996094 L 1003.117188 1351.847656 C 1000.945312 1290.148438 975.445312 1234.351562 935.167969 1193 L 934.855469 1192.679688 C 933.222656 1191.007812 931.5625 1189.355469 929.878906 1187.730469 C 886.714844 1146.066406 827.925781 1120.433594 763.128906 1120.433594 C 698.320312 1120.433594 639.527344 1146.066406 596.359375 1187.726562 C 594.675781 1189.351562 593.015625 1191 591.378906 1192.675781 L 591.066406 1192.996094 L 590.75 1193.3125 C 550.628906 1234.640625 525.257812 1290.351562 523.105469 1351.929688 C 523.097656 1352.351562 523.195312 1352.738281 523.375 1353.003906 C 523.550781 1353.265625 523.839844 1353.492188 524.183594 1353.617188 Z M 763.125 1432.054688 C 701.621094 1432.054688 640.09375 1423.789062 578.566406 1407.265625 C 506.789062 1426.519531 435.007812 1434.53125 363.226562 1431.304688 C 289.875 1428.003906 216.566406 1412.996094 143.367188 1386.292969 C 136.410156 1383.742188 130.636719 1379.34375 126.476562 1373.71875 C 126.148438 1373.320312 125.839844 1372.898438 125.542969 1372.464844 C 121.371094 1366.28125 119.152344 1358.796875 119.421875 1350.839844 C 122 1277.007812 153.667969 1210.570312 203.292969 1162.679688 C 252.757812 1114.945312 320.054688 1085.574219 394.164062 1085.574219 C 431.910156 1085.574219 468 1093.261719 500.933594 1107.164062 C 529.667969 1119.285156 555.898438 1136.136719 578.632812 1156.722656 C 627.429688 1112.519531 692.152344 1085.574219 763.128906 1085.574219 C 834.097656 1085.574219 898.8125 1112.511719 947.601562 1156.722656 C 970.339844 1136.136719 996.578125 1119.285156 1025.308594 1107.164062 C 1058.246094 1093.265625 1094.347656 1085.574219 1132.101562 1085.574219 C 1206.203125 1085.574219 1273.488281 1114.945312 1322.949219 1162.683594 C 1372.574219 1210.578125 1404.234375 1277.011719 1406.8125 1350.839844 C 1407.082031 1358.796875 1404.863281 1366.28125 1400.695312 1372.464844 L 1400.664062 1372.445312 C 1396.453125 1378.675781 1390.328125 1383.5625 1382.863281 1386.292969 C 1309.675781 1412.996094 1236.382812 1428 1163.039062 1431.300781 C 1091.257812 1434.527344 1019.460938 1426.507812 947.683594 1407.265625 C 886.15625 1423.789062 824.632812 1432.054688 763.125 1432.054688 Z M 512.855469 1386.480469 C 463.488281 1395.433594 414.101562 1398.800781 364.730469 1396.585938 C 294.976562 1393.445312 225.121094 1379.121094 155.214844 1353.617188 C 154.945312 1353.519531 154.726562 1353.386719 154.566406 1353.246094 L 154.402344 1353 C 154.226562 1352.738281 154.132812 1352.351562 154.140625 1351.929688 C 156.390625 1287.53125 184.046875 1229.554688 227.390625 1187.726562 C 270.5625 1146.066406 329.355469 1120.433594 394.164062 1120.433594 C 427.367188 1120.433594 458.898438 1127.101562 487.457031 1139.15625 C 512.113281 1149.5625 534.699219 1164 554.375 1181.648438 C 515.117188 1227.4375 490.640625 1286.316406 488.386719 1350.839844 C 488.117188 1358.800781 490.339844 1366.28125 494.511719 1372.46875 C 498.683594 1378.65625 504.808594 1383.546875 512.335938 1386.292969 Z M 971.859375 1181.660156 C 991.539062 1164.011719 1014.125 1149.566406 1038.789062 1139.15625 C 1067.355469 1127.101562 1098.886719 1120.433594 1132.101562 1120.433594 C 1196.898438 1120.433594 1255.683594 1146.066406 1298.847656 1187.730469 C 1342.195312 1229.566406 1369.847656 1287.535156 1372.09375 1351.929688 C 1372.105469 1352.351562 1372.007812 1352.734375 1371.832031 1353 L 1371.863281 1353.019531 L 1371.832031 1353.0625 C 1371.6875 1353.277344 1371.402344 1353.480469 1371.015625 1353.617188 C 1301.121094 1379.121094 1231.277344 1393.441406 1161.535156 1396.578125 C 1112.15625 1398.796875 1062.769531 1395.425781 1013.390625 1386.476562 L 1013.886719 1386.292969 C 1021.417969 1383.542969 1027.546875 1378.660156 1031.726562 1372.464844 C 1035.902344 1366.273438 1038.125 1358.761719 1037.84375 1350.773438 L 1037.820312 1350.273438 C 1035.441406 1285.976562 1011.003906 1227.3125 971.859375 1181.660156 Z M 394.144531 818.675781 C 430.882812 818.675781 464.175781 833.59375 488.28125 857.699219 L 488.351562 857.769531 C 512.457031 881.878906 527.375 915.171875 527.375 951.902344 C 527.375 988.640625 512.457031 1021.929688 488.351562 1046.039062 L 488.316406 1046.074219 L 488.351562 1046.109375 C 464.242188 1070.21875 430.929688 1085.132812 394.144531 1085.132812 C 357.433594 1085.132812 324.121094 1070.207031 299.976562 1046.074219 L 299.941406 1046.109375 C 275.832031 1022 260.917969 988.6875 260.917969 951.902344 C 260.917969 915.121094 275.832031 881.808594 299.941406 857.699219 C 300.28125 857.359375 300.636719 857.03125 301 856.726562 C 325.023438 833.195312 357.90625 818.675781 394.144531 818.675781 Z M 463.746094 882.308594 C 445.953125 864.535156 421.335938 853.535156 394.144531 853.535156 C 367.382812 853.535156 343.125 864.1875 325.398438 881.46875 L 324.585938 882.34375 C 306.789062 900.136719 295.777344 924.738281 295.777344 951.902344 C 295.777344 979.070312 306.789062 1003.671875 324.585938 1021.46875 L 324.550781 1021.503906 L 324.585938 1021.535156 C 342.335938 1039.285156 366.929688 1050.273438 394.144531 1050.273438 C 421.3125 1050.273438 445.914062 1039.261719 463.710938 1021.46875 L 463.746094 1021.503906 C 481.519531 1003.707031 492.515625 979.09375 492.515625 951.902344 C 492.515625 924.710938 481.515625 900.097656 463.746094 882.308594 Z M 1132.082031 818.675781 C 1168.816406 818.675781 1202.109375 833.59375 1226.21875 857.699219 L 1226.289062 857.769531 C 1250.394531 881.878906 1265.3125 915.171875 1265.3125 951.902344 C 1265.3125 988.640625 1250.394531 1021.929688 1226.289062 1046.039062 L 1226.253906 1046.074219 L 1226.289062 1046.109375 C 1202.179688 1070.21875 1168.867188 1085.132812 1132.082031 1085.132812 C 1095.371094 1085.132812 1062.058594 1070.207031 1037.914062 1046.074219 L 1037.878906 1046.109375 C 1013.769531 1022 998.855469 988.6875 998.855469 951.902344 C 998.855469 915.121094 1013.769531 881.808594 1037.878906 857.699219 C 1038.21875 857.359375 1038.574219 857.03125 1038.933594 856.726562 C 1062.960938 833.195312 1095.84375 818.675781 1132.082031 818.675781 Z M 1201.679688 882.308594 C 1183.890625 864.535156 1159.273438 853.535156 1132.082031 853.535156 C 1105.320312 853.535156 1081.0625 864.1875 1063.335938 881.46875 L 1062.519531 882.34375 C 1044.726562 900.136719 1033.714844 924.738281 1033.714844 951.902344 C 1033.714844 979.070312 1044.726562 1003.671875 1062.519531 1021.46875 L 1062.484375 1021.503906 L 1062.519531 1021.535156 C 1080.269531 1039.285156 1104.863281 1050.273438 1132.082031 1050.273438 C 1159.25 1050.273438 1183.851562 1039.261719 1201.644531 1021.46875 L 1201.679688 1021.503906 C 1219.457031 1003.707031 1230.453125 979.09375 1230.453125 951.902344 C 1230.453125 924.710938 1219.453125 900.097656 1201.679688 882.308594 Z M 828.796875 651.445312 L 828.796875 762.78125 C 828.796875 771.574219 825.1875 779.609375 819.363281 785.453125 L 819.328125 785.484375 L 819.292969 785.519531 C 813.441406 791.351562 805.398438 794.957031 796.621094 794.957031 L 729.609375 794.957031 C 720.742188 794.957031 712.695312 791.34375 706.871094 785.519531 C 701.050781 779.699219 697.4375 771.644531 697.4375 762.78125 L 697.4375 651.445312 L 686.8125 651.445312 C 680.65625 651.445312 674.839844 649.738281 669.8125 646.605469 C 664.820312 643.503906 660.742188 639.035156 658 633.472656 L 658 633.402344 C 655.273438 627.855469 654.214844 621.921875 654.796875 616.101562 C 655.386719 610.238281 657.59375 604.570312 661.378906 599.65625 L 696.238281 554.371094 L 737.6875 500.53125 C 740.726562 496.582031 744.519531 493.480469 748.90625 491.316406 L 748.890625 491.289062 C 753.308594 489.105469 758.117188 487.972656 763.113281 487.972656 C 768.109375 487.972656 772.90625 489.097656 777.34375 491.289062 L 777.328125 491.316406 C 781.710938 493.480469 785.515625 496.578125 788.554688 500.53125 L 830.003906 554.371094 L 864.859375 599.65625 L 864.859375 599.722656 C 868.648438 604.652344 870.871094 610.285156 871.4375 616.105469 C 872.019531 621.957031 870.964844 627.929688 868.238281 633.472656 C 865.496094 639.035156 861.410156 643.507812 856.425781 646.605469 C 851.390625 649.746094 845.574219 651.445312 839.425781 651.445312 Z M 793.9375 760.097656 L 793.9375 648.757812 C 793.9375 639.890625 797.550781 631.839844 803.375 626.015625 C 809.195312 620.195312 817.25 616.585938 826.113281 616.585938 L 834.039062 616.585938 L 802.503906 575.613281 L 763.121094 524.457031 L 723.734375 575.613281 L 692.195312 616.585938 L 700.121094 616.585938 C 708.988281 616.585938 717.035156 620.195312 722.859375 626.019531 L 722.828125 626.054688 C 728.675781 631.910156 732.296875 639.953125 732.296875 648.757812 L 732.296875 760.097656 Z M 1007.441406 663.1875 L 1046.875 731.476562 L 1046.875 731.546875 L 1063.59375 760.503906 L 1134.945312 760.503906 L 1117.941406 731.046875 L 1100.386719 700.640625 L 1100.359375 700.660156 L 1060.929688 632.371094 L 1060.929688 632.300781 C 1056.492188 624.601562 1055.585938 615.859375 1057.699219 607.972656 C 1059.820312 600.066406 1064.996094 592.921875 1072.71875 588.46875 L 1079.609375 584.492188 L 1031.707031 564.742188 L 972.023438 540.136719 L 963.511719 604.054688 L 956.664062 655.4375 L 963.539062 651.464844 C 971.226562 647.023438 980.007812 646.113281 987.933594 648.234375 C 995.804688 650.34375 1002.949219 655.503906 1007.410156 663.207031 Z M 1016.816406 748.886719 L 1016.789062 748.90625 L 978.664062 682.882812 L 969.445312 688.207031 C 964.089844 691.296875 958.207031 692.734375 952.332031 692.542969 C 946.417969 692.351562 940.628906 690.507812 935.496094 687.074219 C 930.339844 683.625 926.429688 678.980469 924.007812 673.632812 C 921.605469 668.316406 920.703125 662.347656 921.519531 656.195312 L 929.066406 599.558594 L 938.039062 532.207031 L 938.039062 532.144531 C 938.710938 527.15625 940.445312 522.554688 943.152344 518.5 C 945.820312 514.511719 949.402344 511.164062 953.804688 508.617188 L 953.789062 508.589844 C 958.179688 506.042969 962.917969 504.589844 967.804688 504.277344 C 972.597656 503.964844 977.429688 504.78125 982.101562 506.710938 L 1044.917969 532.609375 L 1097.746094 554.390625 C 1103.464844 556.757812 1108.195312 560.53125 1111.628906 565.3125 C 1115.089844 570.125 1117.1875 575.824219 1117.597656 581.953125 L 1117.597656 582.023438 C 1117.992188 588.117188 1116.675781 594.015625 1113.890625 599.230469 C 1111.105469 604.453125 1106.917969 608.832031 1101.609375 611.902344 L 1101.539062 611.902344 L 1092.332031 617.21875 L 1130.445312 683.230469 L 1130.445312 683.300781 L 1148.027344 713.757812 L 1167.316406 747.167969 C 1170.253906 752.261719 1171.738281 757.730469 1171.738281 763.191406 C 1171.738281 768.703125 1170.253906 774.1875 1167.316406 779.269531 L 1167.285156 779.25 C 1164.367188 784.308594 1160.359375 788.3125 1155.621094 791.046875 L 1155.550781 791.046875 C 1150.691406 793.855469 1145.226562 795.363281 1139.507812 795.363281 L 1043.613281 795.363281 L 1038.574219 786.648438 L 1034.503906 779.601562 L 1034.378906 779.390625 L 1034.144531 778.90625 Z M 547.585938 682.855469 L 511.402344 745.523438 L 511.375 745.503906 L 491.917969 779.207031 C 489.007812 784.257812 484.96875 788.273438 480.15625 791.046875 C 475.285156 793.851562 469.824219 795.363281 464.105469 795.363281 L 386.730469 795.363281 C 380.964844 795.363281 375.46875 793.855469 370.609375 791.042969 L 370.628906 791.015625 C 365.835938 788.246094 361.835938 784.261719 358.945312 779.25 L 358.914062 779.269531 C 355.972656 774.175781 354.496094 768.683594 354.496094 763.183594 C 354.496094 757.742188 355.976562 752.265625 358.914062 747.167969 L 358.914062 747.097656 L 378.019531 714.019531 L 378.023438 714.023438 L 378.136719 713.824219 L 378.207031 713.757812 L 397.742188 679.921875 L 397.742188 679.851562 L 433.882812 617.246094 L 424.628906 611.902344 L 424.648438 611.871094 C 419.285156 608.769531 415.105469 604.402344 412.34375 599.234375 C 409.558594 594.007812 408.246094 588.113281 408.640625 582.023438 L 408.640625 581.953125 C 409.050781 575.832031 411.140625 570.136719 414.605469 565.308594 C 418.03125 560.535156 422.769531 556.746094 428.484375 554.390625 L 481.3125 532.609375 L 544.128906 506.710938 C 548.804688 504.78125 553.628906 503.964844 558.425781 504.277344 C 563.308594 504.589844 568.050781 506.042969 572.441406 508.589844 L 572.425781 508.617188 C 576.824219 511.164062 580.410156 514.507812 583.078125 518.5 C 585.785156 522.554688 587.519531 527.15625 588.191406 532.144531 L 588.191406 532.207031 L 597.164062 599.558594 L 604.710938 656.195312 C 605.527344 662.347656 604.625 668.316406 602.222656 673.632812 C 599.808594 678.976562 595.902344 683.621094 590.742188 687.074219 C 585.601562 690.511719 579.8125 692.351562 573.902344 692.542969 C 568.015625 692.734375 562.140625 691.292969 556.792969 688.207031 L 556.8125 688.175781 Z M 481.316406 728.09375 L 518.796875 663.1875 L 518.824219 663.207031 C 523.28125 655.511719 530.410156 650.347656 538.304688 648.234375 C 546.222656 646.109375 555.003906 647.023438 562.6875 651.464844 L 562.667969 651.492188 L 569.570312 655.476562 L 562.71875 604.054688 L 554.207031 540.136719 L 494.523438 564.742188 L 446.664062 584.472656 L 453.582031 588.46875 L 453.5625 588.5 C 461.226562 592.929688 466.390625 600.070312 468.515625 607.980469 L 468.53125 607.972656 C 470.644531 615.851562 469.742188 624.601562 465.304688 632.300781 L 465.304688 632.371094 L 427.828125 697.28125 L 427.796875 697.261719 L 408.34375 730.964844 L 408.363281 730.980469 L 408.175781 731.308594 L 408.105469 731.449219 L 391.328125 760.503906 L 462.648438 760.503906 L 481.316406 728.164062 Z M 763.121094 40.226562 C 704.601562 40.226562 651.609375 63.957031 613.257812 102.308594 C 574.90625 140.660156 551.179688 193.652344 551.179688 252.164062 C 551.179688 310.683594 574.90625 363.671875 613.265625 402.027344 C 651.617188 440.382812 704.605469 464.109375 763.121094 464.109375 C 821.632812 464.109375 874.625 440.378906 912.976562 402.027344 C 951.328125 363.667969 975.0625 310.675781 975.0625 252.164062 C 975.0625 193.65625 951.328125 140.664062 912.976562 102.3125 C 874.625 63.960938 821.632812 40.226562 763.121094 40.226562 Z M 888.332031 126.957031 C 856.296875 94.917969 812.015625 75.085938 763.121094 75.085938 C 714.21875 75.085938 669.941406 94.914062 637.902344 126.949219 C 605.863281 158.988281 586.039062 203.269531 586.039062 252.164062 C 586.039062 301.0625 605.863281 345.34375 637.90625 377.382812 C 669.945312 409.425781 714.226562 429.25 763.121094 429.25 C 812.015625 429.25 856.296875 409.421875 888.332031 377.382812 C 920.371094 345.339844 940.203125 301.058594 940.203125 252.164062 C 940.203125 203.273438 920.371094 158.996094 888.332031 126.957031 Z M 670.316406 272.925781 L 670.324219 272.910156 L 740.601562 334.203125 L 740.976562 334.511719 L 741.03125 334.542969 L 741.027344 334.550781 L 741.070312 334.578125 C 743.820312 336.253906 747.070312 336.738281 750.136719 336.152344 C 753.289062 335.546875 756.199219 333.789062 758.105469 331.03125 L 857.316406 187.757812 C 859.304688 184.886719 859.9375 181.453125 859.355469 178.242188 C 858.78125 175.078125 856.996094 172.121094 854.160156 170.160156 C 851.300781 168.175781 847.863281 167.546875 844.652344 168.128906 C 841.484375 168.703125 838.527344 170.484375 836.5625 173.316406 L 757.96875 286.8125 C 756.519531 288.914062 754.882812 290.550781 752.554688 292.019531 L 752.558594 292.027344 C 749.964844 293.675781 747.621094 294.4375 745.007812 294.804688 C 742.1875 295.195312 739.683594 294.996094 737.097656 294.230469 C 734.386719 293.425781 732.289062 292.253906 730.222656 290.511719 L 688.6875 255.445312 C 685.699219 252.921875 682.042969 251.628906 678.53125 251.730469 C 675.65625 251.804688 672.804688 252.910156 670.546875 255.125 L 670.550781 255.128906 L 669.625 256.140625 L 669.613281 256.132812 C 667.621094 258.582031 666.621094 261.695312 666.675781 264.773438 C 666.722656 267.664062 667.820312 270.507812 669.988281 272.589844 L 669.96875 272.609375 Z M 670.316406 272.925781 " fill-opacity="1" fill-rule="evenodd"/></g></svg>