<svg xmlns="http://www.w3.org/2000/svg" xmlns:xlink="http://www.w3.org/1999/xlink" width="2000" zoomAndPan="magnify" viewBox="0 0 1500 1499.999933" height="2000" preserveAspectRatio="xMidYMid meet" version="1.0"><defs><clipPath id="59e96430e2"><path d="M 54.863281 170.429688 L 1449 170.429688 L 1449 1332.929688 L 54.863281 1332.929688 Z M 54.863281 170.429688 " clip-rule="nonzero"/></clipPath></defs><g clip-path="url(#59e96430e2)"><path fill="#24577e" d="M 1448.925781 447.34375 C 1448.925781 392.1875 1404.644531 349.007812 1348.128906 349.007812 C 1291.617188 349.007812 1247.335938 392.1875 1247.335938 447.34375 L 1247.335938 466.519531 L 1132.570312 466.519531 L 1253.121094 257.726562 C 1260.8125 244.394531 1262.78125 228.863281 1258.644531 213.996094 C 1254.535156 199.1875 1244.761719 186.695312 1231.167969 178.855469 C 1217.574219 170.988281 1201.867188 168.792969 1186.972656 172.636719 C 1172.050781 176.484375 1159.585938 185.941406 1151.863281 199.304688 L 997.589844 466.519531 L 256.480469 466.519531 L 256.480469 447.34375 C 256.480469 392.1875 212.199219 349.007812 155.6875 349.007812 C 99.171875 349.007812 54.890625 392.1875 54.890625 447.34375 L 54.890625 1229.378906 C 54.890625 1230.015625 54.921875 1230.652344 55.007812 1231.257812 C 54.949219 1231.921875 54.890625 1232.589844 54.921875 1233.253906 C 55.671875 1288.0625 100.90625 1332.660156 155.714844 1332.660156 L 1348.160156 1332.660156 C 1403.3125 1332.660156 1448.519531 1287.800781 1448.953125 1232.644531 C 1448.953125 1232.066406 1448.953125 1231.460938 1448.867188 1230.910156 C 1448.925781 1230.417969 1448.953125 1229.898438 1448.953125 1229.378906 L 1448.953125 447.34375 Z M 1282.011719 447.34375 C 1282.011719 411.652344 1311.050781 383.714844 1348.101562 383.714844 C 1385.152344 383.714844 1414.1875 411.652344 1414.1875 447.34375 L 1414.1875 1154.585938 C 1396.605469 1139.863281 1373.609375 1131.070312 1348.101562 1131.070312 C 1322.589844 1131.070312 1299.570312 1139.863281 1282.011719 1154.585938 Z M 1015.695312 525.984375 L 1038.253906 539 L 1013.960938 555.050781 Z M 1064.890625 514.300781 L 1023.765625 490.554688 L 1125.976562 313.492188 L 1167.105469 337.234375 Z M 1159.46875 255.5 L 1200.597656 279.246094 L 1184.457031 307.183594 L 1143.328125 283.441406 Z M 1195.621094 206.21875 C 1201.667969 204.65625 1208.117188 205.609375 1213.785156 208.90625 C 1219.453125 212.175781 1223.503906 217.292969 1225.179688 223.308594 C 1226.800781 229.125 1226.019531 235.167969 1223.011719 240.375 L 1217.921875 249.195312 L 1176.792969 225.449219 L 1181.882812 216.628906 C 1184.890625 211.421875 1189.75 207.722656 1195.59375 206.21875 Z M 89.570312 447.34375 C 89.570312 411.652344 118.605469 383.714844 155.65625 383.714844 C 192.707031 383.714844 221.746094 411.652344 221.746094 447.34375 L 221.746094 1154.585938 C 204.160156 1139.863281 181.167969 1131.070312 155.65625 1131.070312 C 130.148438 1131.070312 107.125 1139.863281 89.570312 1154.585938 Z M 1348.128906 1297.953125 L 155.65625 1297.953125 C 119.707031 1297.953125 90.0625 1268.710938 89.570312 1232.761719 C 89.570312 1232.242188 89.511719 1231.691406 89.480469 1231.171875 C 89.539062 1230.5625 89.570312 1229.984375 89.570312 1229.347656 C 89.570312 1193.660156 118.605469 1165.71875 155.65625 1165.71875 C 192.707031 1165.71875 221.746094 1193.660156 221.746094 1229.347656 C 221.746094 1238.921875 229.523438 1246.703125 239.097656 1246.703125 C 248.671875 1246.703125 256.453125 1238.921875 256.453125 1229.347656 L 256.453125 501.167969 L 982.375 501.167969 L 977.199219 587.558594 C 976.792969 594.125 980.148438 600.34375 985.847656 603.640625 C 988.535156 605.203125 991.542969 605.953125 994.523438 605.953125 C 997.851562 605.953125 1001.203125 605 1004.097656 603.089844 L 1080.769531 552.449219 C 1083.027344 550.972656 1084.878906 548.976562 1086.238281 546.632812 L 1112.5 501.167969 L 1247.304688 501.167969 L 1247.304688 1229.347656 C 1247.304688 1238.921875 1255.085938 1246.703125 1264.660156 1246.703125 C 1274.234375 1246.703125 1282.011719 1238.921875 1282.011719 1229.347656 C 1282.011719 1193.660156 1311.050781 1165.71875 1348.101562 1165.71875 C 1385.152344 1165.71875 1414.1875 1193.660156 1414.1875 1229.347656 C 1414.1875 1229.871094 1414.21875 1230.417969 1414.277344 1230.941406 C 1414.246094 1231.402344 1414.1875 1231.863281 1414.1875 1232.355469 C 1413.898438 1268.511719 1384.253906 1297.925781 1348.101562 1297.925781 Z M 1134.160156 640.199219 C 1098.847656 640.199219 1070.097656 668.949219 1070.097656 704.261719 C 1070.097656 712.300781 1071.601562 719.996094 1074.320312 727.109375 L 951.371094 818.449219 C 940.527344 810.058594 926.960938 805.054688 912.238281 805.054688 C 898.761719 805.054688 886.265625 809.25 875.941406 816.363281 L 722.710938 688.671875 C 726.324219 680.660156 728.320312 671.8125 728.320312 662.46875 C 728.320312 627.15625 699.574219 598.40625 664.257812 598.40625 C 628.945312 598.40625 600.195312 627.15625 600.195312 662.46875 C 600.195312 664.582031 600.3125 666.664062 600.511719 668.714844 L 420.703125 738.882812 C 408.988281 723.410156 390.449219 713.402344 369.597656 713.402344 C 334.28125 713.402344 305.535156 742.148438 305.535156 777.464844 C 305.535156 812.777344 334.28125 841.527344 369.597656 841.527344 C 404.910156 841.527344 433.660156 812.777344 433.660156 777.464844 C 433.660156 775.351562 433.542969 773.269531 433.339844 771.21875 L 613.152344 701.050781 C 624.867188 716.523438 643.40625 726.53125 664.257812 726.53125 C 677.679688 726.53125 690.144531 722.367188 700.46875 715.28125 L 853.730469 843.003906 C 850.171875 850.984375 848.148438 859.808594 848.148438 869.089844 C 848.148438 904.40625 876.894531 933.152344 912.210938 933.152344 C 947.523438 933.152344 976.273438 904.40625 976.273438 869.089844 C 976.273438 861.050781 974.769531 853.355469 972.050781 846.242188 L 1095 754.90625 C 1105.847656 763.292969 1119.410156 768.296875 1134.132812 768.296875 C 1169.445312 768.296875 1198.195312 739.546875 1198.195312 704.234375 C 1198.195312 668.917969 1169.445312 640.167969 1134.132812 640.167969 Z M 369.625 806.851562 C 353.429688 806.851562 340.269531 793.691406 340.269531 777.492188 C 340.269531 761.296875 353.429688 748.136719 369.625 748.136719 C 385.820312 748.136719 398.980469 761.296875 398.980469 777.492188 C 398.980469 793.691406 385.820312 806.851562 369.625 806.851562 Z M 664.289062 691.855469 C 648.089844 691.855469 634.929688 678.695312 634.929688 662.496094 C 634.929688 646.300781 648.089844 633.140625 664.289062 633.140625 C 680.484375 633.140625 693.644531 646.300781 693.644531 662.496094 C 693.644531 678.695312 680.484375 691.855469 664.289062 691.855469 Z M 912.269531 898.476562 C 896.070312 898.476562 882.914062 885.316406 882.914062 869.121094 C 882.914062 852.921875 896.070312 839.761719 912.269531 839.761719 C 928.464844 839.761719 941.625 852.921875 941.625 869.121094 C 941.625 885.316406 928.464844 898.476562 912.269531 898.476562 Z M 1134.160156 733.617188 C 1117.964844 733.617188 1104.804688 720.457031 1104.804688 704.261719 C 1104.804688 688.066406 1117.964844 674.90625 1134.160156 674.90625 C 1150.359375 674.90625 1163.519531 688.066406 1163.519531 704.261719 C 1163.519531 720.457031 1150.359375 733.617188 1134.160156 733.617188 Z M 526.703125 854.714844 L 547.46875 833.949219 L 526.703125 813.183594 C 519.933594 806.414062 519.933594 795.425781 526.703125 788.65625 C 533.472656 781.890625 544.460938 781.890625 551.230469 788.65625 L 571.996094 809.421875 L 592.761719 788.65625 C 599.53125 781.890625 610.519531 781.890625 617.289062 788.65625 C 624.054688 795.425781 624.054688 806.414062 617.289062 813.183594 L 596.523438 833.949219 L 617.289062 854.714844 C 624.054688 861.484375 624.054688 872.476562 617.289062 879.242188 C 613.902344 882.625 609.449219 884.332031 605.023438 884.332031 C 600.601562 884.332031 596.144531 882.625 592.761719 879.242188 L 571.996094 858.476562 L 551.230469 879.242188 C 547.84375 882.625 543.390625 884.332031 538.964844 884.332031 C 534.542969 884.332031 530.085938 882.625 526.703125 879.242188 C 519.933594 872.476562 519.933594 861.484375 526.703125 854.714844 Z M 799.703125 684.335938 L 820.46875 663.566406 L 799.703125 642.800781 C 792.933594 636.035156 792.933594 625.042969 799.703125 618.246094 C 806.46875 611.480469 817.460938 611.480469 824.226562 618.246094 L 844.996094 639.011719 L 865.761719 618.246094 C 872.527344 611.480469 883.519531 611.480469 890.289062 618.246094 C 897.054688 625.015625 897.054688 636.003906 890.289062 642.800781 L 869.519531 663.566406 L 890.289062 684.335938 C 897.054688 691.101562 897.054688 702.09375 890.289062 708.890625 C 886.902344 712.273438 882.449219 713.980469 878.023438 713.980469 C 873.597656 713.980469 869.144531 712.273438 865.761719 708.890625 L 844.996094 688.125 L 824.230469 708.890625 C 820.84375 712.273438 816.390625 713.980469 811.964844 713.980469 C 807.539062 713.980469 803.085938 712.273438 799.703125 708.890625 C 792.933594 702.121094 792.933594 691.132812 799.703125 684.335938 Z M 1182.460938 858.851562 L 1161.695312 879.617188 L 1182.460938 900.386719 C 1189.230469 907.152344 1189.230469 918.144531 1182.460938 924.910156 C 1179.078125 928.296875 1174.625 930 1170.199219 930 C 1165.773438 930 1161.320312 928.296875 1157.9375 924.910156 L 1137.167969 904.144531 L 1116.402344 924.910156 C 1113.019531 928.296875 1108.566406 930 1104.140625 930 C 1099.714844 930 1095.261719 928.296875 1091.878906 924.910156 C 1085.109375 918.144531 1085.109375 907.152344 1091.878906 900.386719 L 1112.644531 879.617188 L 1091.878906 858.851562 C 1085.109375 852.085938 1085.109375 841.09375 1091.878906 834.324219 C 1098.644531 827.558594 1109.636719 827.558594 1116.402344 834.324219 L 1137.167969 855.09375 L 1157.9375 834.324219 C 1164.703125 827.558594 1175.695312 827.558594 1182.460938 834.324219 C 1189.230469 841.09375 1189.230469 852.085938 1182.460938 858.851562 Z M 411.621094 1021.25 C 411.621094 1030.824219 403.839844 1038.605469 394.265625 1038.605469 L 354.730469 1038.605469 C 345.15625 1038.605469 337.375 1030.824219 337.375 1021.25 C 337.375 1011.679688 345.15625 1003.898438 354.730469 1003.898438 L 394.265625 1003.898438 C 403.839844 1003.898438 411.621094 1011.679688 411.621094 1021.25 Z M 724.300781 1021.25 C 724.300781 1030.824219 716.519531 1038.605469 706.949219 1038.605469 L 454.425781 1038.605469 C 444.851562 1038.605469 437.074219 1030.824219 437.074219 1021.25 C 437.074219 1011.679688 444.851562 1003.898438 454.425781 1003.898438 L 706.949219 1003.898438 C 716.519531 1003.898438 724.300781 1011.679688 724.300781 1021.25 Z M 411.621094 1092.457031 C 411.621094 1102.03125 403.839844 1109.8125 394.265625 1109.8125 L 354.730469 1109.8125 C 345.15625 1109.8125 337.375 1102.03125 337.375 1092.457031 C 337.375 1082.886719 345.15625 1075.105469 354.730469 1075.105469 L 394.265625 1075.105469 C 403.839844 1075.105469 411.621094 1082.886719 411.621094 1092.457031 Z M 724.300781 1092.457031 C 724.300781 1102.03125 716.519531 1109.8125 706.949219 1109.8125 L 454.425781 1109.8125 C 444.851562 1109.8125 437.074219 1102.03125 437.074219 1092.457031 C 437.074219 1082.886719 444.851562 1075.105469 454.425781 1075.105469 L 706.949219 1075.105469 C 716.519531 1075.105469 724.300781 1082.886719 724.300781 1092.457031 Z M 411.621094 1163.667969 C 411.621094 1173.238281 403.839844 1181.019531 394.265625 1181.019531 L 354.730469 1181.019531 C 345.15625 1181.019531 337.375 1173.238281 337.375 1163.667969 C 337.375 1154.09375 345.15625 1146.3125 354.730469 1146.3125 L 394.265625 1146.3125 C 403.839844 1146.3125 411.621094 1154.09375 411.621094 1163.667969 Z M 724.300781 1163.667969 C 724.300781 1173.238281 716.519531 1181.019531 706.949219 1181.019531 L 454.425781 1181.019531 C 444.851562 1181.019531 437.074219 1173.238281 437.074219 1163.667969 C 437.074219 1154.09375 444.851562 1146.3125 454.425781 1146.3125 L 706.949219 1146.3125 C 716.519531 1146.3125 724.300781 1154.09375 724.300781 1163.667969 Z M 411.621094 1234.875 C 411.621094 1244.445312 403.839844 1252.226562 394.265625 1252.226562 L 354.730469 1252.226562 C 345.15625 1252.226562 337.375 1244.445312 337.375 1234.875 C 337.375 1225.300781 345.15625 1217.519531 354.730469 1217.519531 L 394.265625 1217.519531 C 403.839844 1217.519531 411.621094 1225.300781 411.621094 1234.875 Z M 724.300781 1234.875 C 724.300781 1244.445312 716.519531 1252.226562 706.949219 1252.226562 L 454.425781 1252.226562 C 444.851562 1252.226562 437.074219 1244.445312 437.074219 1234.875 C 437.074219 1225.300781 444.851562 1217.519531 454.425781 1217.519531 L 706.949219 1217.519531 C 716.519531 1217.519531 724.300781 1225.300781 724.300781 1234.875 Z M 853.730469 1021.25 C 853.730469 1030.824219 845.949219 1038.605469 836.375 1038.605469 L 796.839844 1038.605469 C 787.265625 1038.605469 779.484375 1030.824219 779.484375 1021.25 C 779.484375 1011.679688 787.265625 1003.898438 796.839844 1003.898438 L 836.375 1003.898438 C 845.949219 1003.898438 853.730469 1011.679688 853.730469 1021.25 Z M 1166.410156 1021.25 C 1166.410156 1030.824219 1158.628906 1038.605469 1149.054688 1038.605469 L 896.535156 1038.605469 C 886.960938 1038.605469 879.179688 1030.824219 879.179688 1021.25 C 879.179688 1011.679688 886.960938 1003.898438 896.535156 1003.898438 L 1149.054688 1003.898438 C 1158.628906 1003.898438 1166.410156 1011.679688 1166.410156 1021.25 Z M 853.730469 1092.457031 C 853.730469 1102.03125 845.949219 1109.8125 836.375 1109.8125 L 796.839844 1109.8125 C 787.265625 1109.8125 779.484375 1102.03125 779.484375 1092.457031 C 779.484375 1082.886719 787.265625 1075.105469 796.839844 1075.105469 L 836.375 1075.105469 C 845.949219 1075.105469 853.730469 1082.886719 853.730469 1092.457031 Z M 1166.410156 1092.457031 C 1166.410156 1102.03125 1158.628906 1109.8125 1149.054688 1109.8125 L 896.535156 1109.8125 C 886.960938 1109.8125 879.179688 1102.03125 879.179688 1092.457031 C 879.179688 1082.886719 886.960938 1075.105469 896.535156 1075.105469 L 1149.054688 1075.105469 C 1158.628906 1075.105469 1166.410156 1082.886719 1166.410156 1092.457031 Z M 853.730469 1163.667969 C 853.730469 1173.238281 845.949219 1181.019531 836.375 1181.019531 L 796.839844 1181.019531 C 787.265625 1181.019531 779.484375 1173.238281 779.484375 1163.667969 C 779.484375 1154.09375 787.265625 1146.3125 796.839844 1146.3125 L 836.375 1146.3125 C 845.949219 1146.3125 853.730469 1154.09375 853.730469 1163.667969 Z M 1166.410156 1163.667969 C 1166.410156 1173.238281 1158.628906 1181.019531 1149.054688 1181.019531 L 896.535156 1181.019531 C 886.960938 1181.019531 879.179688 1173.238281 879.179688 1163.667969 C 879.179688 1154.09375 886.960938 1146.3125 896.535156 1146.3125 L 1149.054688 1146.3125 C 1158.628906 1146.3125 1166.410156 1154.09375 1166.410156 1163.667969 Z M 853.730469 1234.875 C 853.730469 1244.445312 845.949219 1252.226562 836.375 1252.226562 L 796.839844 1252.226562 C 787.265625 1252.226562 779.484375 1244.445312 779.484375 1234.875 C 779.484375 1225.300781 787.265625 1217.519531 796.839844 1217.519531 L 836.375 1217.519531 C 845.949219 1217.519531 853.730469 1225.300781 853.730469 1234.875 Z M 1166.410156 1234.875 C 1166.410156 1244.445312 1158.628906 1252.226562 1149.054688 1252.226562 L 896.535156 1252.226562 C 886.960938 1252.226562 879.179688 1244.445312 879.179688 1234.875 C 879.179688 1225.300781 886.960938 1217.519531 896.535156 1217.519531 L 1149.054688 1217.519531 C 1158.628906 1217.519531 1166.410156 1225.300781 1166.410156 1234.875 Z M 1166.410156 1234.875 " fill-opacity="1" fill-rule="nonzero"/></g></svg>