<svg xmlns="http://www.w3.org/2000/svg" xmlns:xlink="http://www.w3.org/1999/xlink" width="2000" zoomAndPan="magnify" viewBox="0 0 1500 1499.999933" height="2000" preserveAspectRatio="xMidYMid meet" version="1.0"><defs><clipPath id="9b376ec7dd"><path d="M 95.523438 27.816406 L 1404.273438 27.816406 L 1404.273438 1472.316406 L 95.523438 1472.316406 Z M 95.523438 27.816406 " clip-rule="nonzero"/></clipPath></defs><g clip-path="url(#9b376ec7dd)"><path fill="#24577e" d="M 749.996094 1472.175781 C 748.769531 1472.175781 747.546875 1472.175781 746.320312 1471.871094 C 608.132812 1449.808594 488.027344 1369.53125 389.058594 1233.1875 C 310.929688 1126.253906 245.972656 984.390625 195.722656 811.890625 C 110.238281 519.585938 95.835938 234.941406 95.835938 231.878906 C 95.53125 223.910156 98.902344 216.558594 105.335938 211.960938 C 111.769531 207.367188 120.042969 206.140625 127.394531 208.898438 C 128.316406 209.203125 216.863281 240.152344 335.441406 234.023438 C 492.929688 225.75 626.519531 159.261719 732.226562 36.089844 C 736.820312 30.882812 743.253906 27.816406 749.996094 27.816406 C 756.738281 27.816406 763.476562 30.882812 767.765625 36.089844 C 874.085938 159.875 1008.289062 226.363281 1166.390625 234.023438 C 1284.660156 239.84375 1371.675781 208.898438 1372.597656 208.589844 C 1379.949219 205.835938 1388.222656 207.058594 1394.65625 211.65625 C 1401.089844 216.25 1404.460938 223.910156 1404.15625 231.570312 C 1404.15625 234.328125 1389.753906 518.972656 1304.269531 811.277344 C 1254.019531 984.390625 1189.0625 1126.253906 1111.238281 1233.1875 C 1012.273438 1369.53125 891.859375 1449.808594 753.980469 1471.871094 C 752.449219 1471.871094 751.222656 1472.175781 749.996094 1472.175781 Z M 145.167969 262.824219 C 151.601562 345.246094 173.96875 570.140625 241.070312 799.328125 C 316.75 1058.539062 466.578125 1376.886719 749.996094 1424.683594 C 1033.414062 1376.886719 1183.242188 1058.539062 1258.921875 799.328125 C 1326.023438 570.140625 1348.390625 345.246094 1354.824219 262.824219 C 1316.21875 272.324219 1247.585938 285.191406 1164.246094 280.902344 C 1051.183594 275.691406 889.40625 236.78125 749.996094 86.644531 C 610.585938 236.78125 448.808594 275.691406 335.746094 281.207031 C 252.40625 285.191406 183.773438 272.628906 145.167969 262.824219 Z M 145.167969 262.824219 " fill-opacity="1" fill-rule="nonzero"/></g><path fill="#24577e" d="M 749.996094 1094.695312 C 560.03125 1094.695312 405.296875 939.964844 405.296875 749.996094 C 405.296875 560.03125 560.03125 405.300781 749.996094 405.300781 C 939.964844 405.300781 1094.695312 560.03125 1094.695312 749.996094 C 1094.695312 939.964844 939.964844 1094.695312 749.996094 1094.695312 Z M 749.996094 452.179688 C 585.765625 452.179688 452.175781 585.765625 452.175781 749.996094 C 452.175781 914.226562 585.765625 1047.816406 749.996094 1047.816406 C 914.226562 1047.816406 1047.816406 914.226562 1047.816406 749.996094 C 1047.816406 585.765625 914.226562 452.179688 749.996094 452.179688 Z M 749.996094 452.179688 " fill-opacity="1" fill-rule="nonzero"/><path fill="#24577e" d="M 591.589844 875.925781 C 588.523438 875.925781 585.460938 875.3125 582.703125 874.085938 C 575.960938 871.332031 570.753906 865.507812 568.914062 858.460938 L 530.617188 715.679688 C 527.246094 703.117188 534.597656 690.25 547.160156 686.878906 C 559.722656 683.507812 572.59375 690.863281 575.960938 703.425781 L 606.296875 816.484375 L 934.753906 626.824219 C 946.089844 620.390625 960.492188 624.066406 966.925781 635.402344 C 973.359375 646.742188 969.683594 661.140625 958.347656 667.574219 L 603.230469 872.554688 C 599.863281 875.007812 595.570312 875.925781 591.589844 875.925781 Z M 591.589844 875.925781 " fill-opacity="1" fill-rule="nonzero"/></svg>