<svg xmlns="http://www.w3.org/2000/svg" xmlns:xlink="http://www.w3.org/1999/xlink" width="2000" zoomAndPan="magnify" viewBox="0 0 1500 1499.999933" height="2000" preserveAspectRatio="xMidYMid meet" version="1.0"><defs><clipPath id="d8672458fa"><path d="M 89 49.875 L 1082 49.875 L 1082 1450 L 89 1450 Z M 89 49.875 " clip-rule="nonzero"/></clipPath><clipPath id="ec9cfc9172"><path d="M 975 682 L 1411.671875 682 L 1411.671875 1028 L 975 1028 Z M 975 682 " clip-rule="nonzero"/></clipPath></defs><g clip-path="url(#d8672458fa)"><path fill="#24577e" d="M 1064.523438 1235.25 C 1054.980469 1235.25 1047.246094 1242.984375 1047.246094 1252.523438 L 1047.246094 1354.574219 C 1047.246094 1388.128906 1019.949219 1415.425781 986.394531 1415.425781 L 184.539062 1415.425781 C 150.984375 1415.425781 123.6875 1388.128906 123.6875 1354.574219 L 123.6875 275.640625 C 123.6875 242.089844 150.984375 214.789062 184.539062 214.789062 L 415.542969 214.789062 L 413.039062 228.289062 C 409.472656 247.5 414.59375 267.128906 427.082031 282.148438 C 439.570312 297.167969 457.9375 305.785156 477.472656 305.785156 L 693.460938 305.785156 C 712.996094 305.785156 731.363281 297.167969 743.851562 282.144531 C 756.34375 267.125 761.460938 247.496094 757.894531 228.289062 L 755.390625 214.789062 L 986.394531 214.789062 C 1019.949219 214.789062 1047.246094 242.089844 1047.246094 275.640625 L 1047.246094 699.527344 C 1047.246094 709.066406 1054.980469 716.804688 1064.523438 716.804688 C 1074.0625 716.804688 1081.800781 709.066406 1081.800781 699.527344 L 1081.800781 275.640625 C 1081.800781 223.035156 1039 180.238281 986.394531 180.238281 L 748.976562 180.238281 L 734.695312 103.304688 C 728.933594 72.261719 701.835938 49.730469 670.261719 49.730469 L 500.671875 49.730469 C 469.09375 49.730469 442 72.261719 436.238281 103.304688 L 421.957031 180.238281 L 184.539062 180.238281 C 131.933594 180.238281 89.132812 223.039062 89.132812 275.640625 L 89.132812 1354.574219 C 89.132812 1407.183594 131.933594 1449.980469 184.539062 1449.980469 L 986.394531 1449.980469 C 1039 1449.980469 1081.800781 1407.183594 1081.800781 1354.574219 L 1081.800781 1252.523438 C 1081.800781 1242.984375 1074.0625 1235.25 1064.523438 1235.25 Z M 447.011719 234.59375 L 470.210938 109.609375 C 472.933594 94.933594 485.742188 84.285156 500.671875 84.285156 L 670.261719 84.285156 C 685.1875 84.285156 698 94.933594 700.722656 109.609375 L 723.921875 234.59375 C 725.609375 243.675781 723.1875 252.957031 717.285156 260.054688 C 711.378906 267.160156 702.695312 271.230469 693.460938 271.230469 L 477.472656 271.230469 C 468.234375 271.230469 459.554688 267.160156 453.648438 260.054688 C 447.746094 252.957031 445.324219 243.675781 447.011719 234.59375 Z M 447.011719 234.59375 " fill-opacity="1" fill-rule="nonzero"/></g><path fill="#24577e" d="M 960.890625 557.257812 C 960.890625 547.71875 953.15625 539.980469 943.613281 539.980469 L 507.050781 539.980469 C 497.507812 539.980469 489.773438 547.71875 489.773438 557.257812 C 489.773438 566.796875 497.507812 574.535156 507.050781 574.535156 L 943.613281 574.535156 C 953.15625 574.535156 960.890625 566.796875 960.890625 557.257812 Z M 960.890625 557.257812 " fill-opacity="1" fill-rule="nonzero"/><path fill="#24577e" d="M 901.195312 849.464844 C 901.195312 839.921875 893.460938 832.1875 883.917969 832.1875 L 507.050781 832.1875 C 497.507812 832.1875 489.773438 839.921875 489.773438 849.464844 C 489.773438 859.003906 497.507812 866.738281 507.050781 866.738281 L 883.917969 866.738281 C 893.460938 866.738281 901.195312 859.003906 901.195312 849.464844 Z M 901.195312 849.464844 " fill-opacity="1" fill-rule="nonzero"/><path fill="#24577e" d="M 412.011719 463.265625 C 405.890625 457.152344 396.355469 456.640625 389.597656 461.621094 C 379.90625 452.78125 367.113281 447.609375 353.421875 447.609375 L 255.570312 447.609375 C 225.972656 447.609375 201.894531 471.6875 201.894531 501.285156 L 201.894531 599.136719 C 201.894531 628.730469 225.972656 652.808594 255.570312 652.808594 L 353.421875 652.808594 C 383.019531 652.808594 407.097656 628.730469 407.097656 599.136719 L 407.097656 572.191406 C 407.097656 562.652344 399.363281 554.914062 389.820312 554.914062 C 380.28125 554.914062 372.542969 562.652344 372.542969 572.191406 L 372.542969 599.136719 C 372.542969 609.679688 363.964844 618.257812 353.421875 618.257812 L 255.570312 618.257812 C 245.023438 618.257812 236.445312 609.679688 236.445312 599.136719 L 236.445312 501.285156 C 236.445312 490.738281 245.023438 482.160156 255.570312 482.160156 L 353.421875 482.160156 C 357.648438 482.160156 361.613281 483.582031 364.851562 486 L 318.023438 532.824219 L 287.355469 502.15625 C 280.613281 495.40625 269.671875 495.410156 262.921875 502.152344 C 256.175781 508.902344 256.175781 519.839844 262.921875 526.585938 L 305.808594 569.472656 C 309.046875 572.714844 313.441406 574.535156 318.023438 574.535156 C 322.605469 574.535156 327 572.714844 330.242188 569.472656 L 412.011719 487.699219 C 418.757812 480.953125 418.757812 470.015625 412.011719 463.265625 Z M 412.011719 463.265625 " fill-opacity="1" fill-rule="nonzero"/><path fill="#24577e" d="M 412.011719 755.476562 C 405.890625 749.359375 396.355469 748.847656 389.59375 753.828125 C 379.90625 744.988281 367.113281 739.816406 353.421875 739.816406 L 255.570312 739.816406 C 225.972656 739.816406 201.894531 763.894531 201.894531 793.488281 L 201.894531 891.339844 C 201.894531 920.9375 225.972656 945.015625 255.570312 945.015625 L 353.421875 945.015625 C 383.019531 945.015625 407.097656 920.9375 407.097656 891.339844 L 407.097656 864.398438 C 407.097656 854.859375 399.363281 847.125 389.820312 847.125 C 380.28125 847.125 372.542969 854.859375 372.542969 864.398438 L 372.542969 891.339844 C 372.542969 901.886719 363.964844 910.464844 353.421875 910.464844 L 255.570312 910.464844 C 245.023438 910.464844 236.445312 901.886719 236.445312 891.339844 L 236.445312 793.488281 C 236.445312 782.945312 245.023438 774.367188 255.570312 774.367188 L 353.421875 774.367188 C 357.648438 774.367188 361.613281 775.785156 364.847656 778.207031 L 318.023438 825.03125 L 287.355469 794.363281 C 280.609375 787.613281 269.667969 787.613281 262.921875 794.363281 C 256.175781 801.109375 256.175781 812.046875 262.921875 818.792969 L 305.808594 861.679688 C 309.183594 865.050781 313.601562 866.738281 318.023438 866.738281 C 322.445312 866.738281 326.867188 865.050781 330.242188 861.679688 L 412.011719 779.910156 C 418.757812 773.160156 418.757812 762.222656 412.011719 755.476562 Z M 412.011719 755.476562 " fill-opacity="1" fill-rule="nonzero"/><path fill="#24577e" d="M 287.355469 1086.570312 C 280.609375 1079.824219 269.667969 1079.824219 262.921875 1086.570312 C 256.175781 1093.316406 256.175781 1104.257812 262.921875 1111 L 305.808594 1153.886719 C 309.046875 1157.128906 313.441406 1158.949219 318.023438 1158.949219 C 322.605469 1158.949219 327 1157.128906 330.242188 1153.886719 L 412.011719 1072.113281 C 418.757812 1065.367188 418.757812 1054.429688 412.011719 1047.679688 C 405.890625 1041.5625 396.355469 1041.054688 389.597656 1046.035156 C 379.90625 1037.191406 367.113281 1032.019531 353.421875 1032.019531 L 255.570312 1032.019531 C 225.972656 1032.019531 201.894531 1056.097656 201.894531 1085.699219 L 201.894531 1183.550781 C 201.894531 1213.144531 225.972656 1237.222656 255.570312 1237.222656 L 353.421875 1237.222656 C 383.019531 1237.222656 407.097656 1213.144531 407.097656 1183.550781 L 407.097656 1156.605469 C 407.097656 1147.0625 399.363281 1139.328125 389.820312 1139.328125 C 380.28125 1139.328125 372.542969 1147.0625 372.542969 1156.605469 L 372.542969 1183.550781 C 372.542969 1194.09375 363.964844 1202.667969 353.421875 1202.667969 L 255.570312 1202.667969 C 245.023438 1202.667969 236.445312 1194.09375 236.445312 1183.550781 L 236.445312 1085.699219 C 236.445312 1075.152344 245.023438 1066.574219 255.570312 1066.574219 L 353.421875 1066.574219 C 357.648438 1066.574219 361.613281 1067.992188 364.851562 1070.410156 L 318.023438 1117.238281 Z M 287.355469 1086.570312 " fill-opacity="1" fill-rule="nonzero"/><path fill="#24577e" d="M 507.050781 1124.394531 C 497.507812 1124.394531 489.773438 1132.128906 489.773438 1141.671875 C 489.773438 1151.210938 497.507812 1158.949219 507.050781 1158.949219 L 649.082031 1158.949219 C 658.625 1158.949219 666.359375 1151.210938 666.359375 1141.671875 C 666.359375 1132.128906 658.625 1124.394531 649.082031 1124.394531 Z M 507.050781 1124.394531 " fill-opacity="1" fill-rule="nonzero"/><path fill="#24577e" d="M 1119.800781 1006.265625 L 919.054688 1006.265625 L 919.054688 941.40625 C 919.054688 934.617188 915.082031 928.460938 908.894531 925.664062 C 902.710938 922.867188 895.464844 923.953125 890.367188 928.4375 L 713.542969 1083.996094 C 709.816406 1087.277344 707.679688 1092 707.679688 1096.96875 C 707.679688 1101.933594 709.816406 1106.660156 713.546875 1109.9375 L 890.367188 1265.496094 C 893.585938 1268.324219 897.660156 1269.800781 901.78125 1269.800781 C 904.191406 1269.800781 906.613281 1269.296875 908.894531 1268.265625 C 915.082031 1265.472656 919.054688 1259.3125 919.054688 1252.523438 L 919.054688 1187.664062 L 1119.800781 1187.664062 C 1137.957031 1187.664062 1152.726562 1172.894531 1152.726562 1154.738281 L 1152.726562 1039.195312 C 1152.726562 1021.039062 1137.957031 1006.265625 1119.800781 1006.265625 Z M 1118.175781 1153.113281 L 901.777344 1153.113281 C 892.238281 1153.113281 884.5 1160.847656 884.5 1170.390625 L 884.5 1214.316406 L 751.113281 1096.96875 L 884.5 979.617188 L 884.5 1023.542969 C 884.5 1033.082031 892.238281 1040.820312 901.777344 1040.820312 L 1118.175781 1040.820312 Z M 1118.175781 1153.113281 " fill-opacity="1" fill-rule="nonzero"/><g clip-path="url(#ec9cfc9172)"><path fill="#24577e" d="M 1398.851562 827.878906 C 1398.851562 827.878906 1398.851562 827.875 1398.847656 827.875 L 1238.207031 686.554688 C 1233.109375 682.070312 1225.863281 680.984375 1219.679688 683.785156 C 1213.496094 686.582031 1209.523438 692.738281 1209.523438 699.527344 L 1209.523438 764.386719 L 1008.777344 764.386719 C 990.621094 764.386719 975.847656 779.15625 975.847656 797.3125 L 975.847656 912.855469 C 975.847656 931.011719 990.621094 945.785156 1008.777344 945.785156 L 1209.523438 945.785156 L 1209.523438 1010.644531 C 1209.523438 1017.433594 1213.496094 1023.589844 1219.679688 1026.386719 C 1221.960938 1027.417969 1224.386719 1027.921875 1226.796875 1027.921875 C 1230.917969 1027.921875 1234.992188 1026.445312 1238.207031 1023.617188 L 1398.847656 882.292969 C 1406.664062 875.414062 1411.148438 865.5 1411.148438 855.089844 C 1411.148438 844.675781 1406.667969 834.757812 1398.851562 827.878906 Z M 1376.027344 856.347656 L 1244.074219 972.4375 L 1244.074219 928.507812 C 1244.074219 918.96875 1236.339844 911.230469 1226.796875 911.230469 L 1010.402344 911.230469 L 1010.402344 798.9375 L 1226.796875 798.9375 C 1236.339844 798.9375 1244.074219 791.203125 1244.074219 781.664062 L 1244.074219 737.734375 L 1376.023438 853.816406 C 1376.164062 853.941406 1376.597656 854.320312 1376.597656 855.085938 C 1376.597656 855.847656 1376.167969 856.226562 1376.027344 856.347656 Z M 1376.027344 856.347656 " fill-opacity="1" fill-rule="nonzero"/></g></svg>