<svg xmlns="http://www.w3.org/2000/svg" xmlns:xlink="http://www.w3.org/1999/xlink" viewBox="0 0 64 64" version="1.1" x="0px" y="0px"><title>4</title><desc>Created with Sketch.</desc><g stroke="none" stroke-width="1" fill="none" fill-rule="evenodd"><g fill="#000000" fill-rule="nonzero"><path d="M2,7 L2,58 L62,58 L62,7 L2,7 Z M2,5 L62,5 C63.1045695,5 64,5.8954305 64,7 L64,58 C64,59.1045695 63.1045695,60 62,60 L2,60 C0.8954305,60 3.57315355e-16,59.1045695 2.22044605e-16,58 L0,7 C-1.3527075e-16,5.8954305 0.8954305,5 2,5 Z M4.5,12.5 C3.3954305,12.5 2.5,11.6045695 2.5,10.5 C2.5,9.3954305 3.3954305,8.5 4.5,8.5 C5.6045695,8.5 6.5,9.3954305 6.5,10.5 C6.5,11.6045695 5.6045695,12.5 4.5,12.5 Z M4.5,11.5 C5.05228475,11.5 5.5,11.0522847 5.5,10.5 C5.5,9.94771525 5.05228475,9.5 4.5,9.5 C3.94771525,9.5 3.5,9.94771525 3.5,10.5 C3.5,11.0522847 3.94771525,11.5 4.5,11.5 Z M9.5,12.5 C8.3954305,12.5 7.5,11.6045695 7.5,10.5 C7.5,9.3954305 8.3954305,8.5 9.5,8.5 C10.6045695,8.5 11.5,9.3954305 11.5,10.5 C11.5,11.6045695 10.6045695,12.5 9.5,12.5 Z M9.5,11.5 C10.0522847,11.5 10.5,11.0522847 10.5,10.5 C10.5,9.94771525 10.0522847,9.5 9.5,9.5 C8.94771525,9.5 8.5,9.94771525 8.5,10.5 C8.5,11.0522847 8.94771525,11.5 9.5,11.5 Z M14.5,12.5 C13.3954305,12.5 12.5,11.6045695 12.5,10.5 C12.5,9.3954305 13.3954305,8.5 14.5,8.5 C15.6045695,8.5 16.5,9.3954305 16.5,10.5 C16.5,11.6045695 15.6045695,12.5 14.5,12.5 Z M14.5,11.5 C15.0522847,11.5 15.5,11.0522847 15.5,10.5 C15.5,9.94771525 15.0522847,9.5 14.5,9.5 C13.9477153,9.5 13.5,9.94771525 13.5,10.5 C13.5,11.0522847 13.9477153,11.5 14.5,11.5 Z M2,14 L62,14 L62,16 L2,16 L2,14 Z M7,20 C6.44771525,20 6,20.4477153 6,21 L6,32 C6,32.5522847 6.44771525,33 7,33 L31,33 C31.5522847,33 32,32.5522847 32,32 L32,21 C32,20.4477153 31.5522847,20 31,20 L7,20 Z M7,19 L31,19 C32.1045695,19 33,19.8954305 33,21 L33,32 C33,33.1045695 32.1045695,34 31,34 L7,34 C5.8954305,34 5,33.1045695 5,32 L5,21 C5,19.8954305 5.8954305,19 7,19 Z M37,21 L58,21 C58.5522847,21 59,21.4477153 59,22 C59,22.5522847 58.5522847,23 58,23 L37,23 C36.4477153,23 36,22.5522847 36,22 C36,21.4477153 36.4477153,21 37,21 Z M36.5,25 L53.5,25 C53.7761424,25 54,25.2238576 54,25.5 C54,25.7761424 53.7761424,26 53.5,26 L36.5,26 C36.2238576,26 36,25.7761424 36,25.5 C36,25.2238576 36.2238576,25 36.5,25 Z M36.5,27 L53.5,27 C53.7761424,27 54,27.2238576 54,27.5 C54,27.7761424 53.7761424,28 53.5,28 L36.5,28 C36.2238576,28 36,27.7761424 36,27.5 C36,27.2238576 36.2238576,27 36.5,27 Z M36.5,29 L53.5,29 C53.7761424,29 54,29.2238576 54,29.5 C54,29.7761424 53.7761424,30 53.5,30 L36.5,30 C36.2238576,30 36,29.7761424 36,29.5 C36,29.2238576 36.2238576,29 36.5,29 Z M36.5,31 L43.5,31 C43.7761424,31 44,31.2238576 44,31.5 C44,31.7761424 43.7761424,32 43.5,32 L36.5,32 C36.2238576,32 36,31.7761424 36,31.5 C36,31.2238576 36.2238576,31 36.5,31 Z M57,38 L45,38 C44.4477153,38 44,38.4477153 44,39 L44,46 C44,46.5522847 44.4477153,47 45,47 L57,47 C57.5522847,47 58,46.5522847 58,46 L58,39 C58,38.4477153 57.5522847,38 57,38 Z M57,37 C58.1045695,37 59,37.8954305 59,39 L59,46 C59,47.1045695 58.1045695,48 57,48 L45,48 C43.8954305,48 43,47.1045695 43,46 L43,39 C43,37.8954305 43.8954305,37 45,37 L57,37 Z M38,38 L26,38 C25.4477153,38 25,38.4477153 25,39 L25,46 C25,46.5522847 25.4477153,47 26,47 L38,47 C38.5522847,47 39,46.5522847 39,46 L39,39 C39,38.4477153 38.5522847,38 38,38 Z M38,37 C39.1045695,37 40,37.8954305 40,39 L40,46 C40,47.1045695 39.1045695,48 38,48 L26,48 C24.8954305,48 24,47.1045695 24,46 L24,39 C24,37.8954305 24.8954305,37 26,37 L38,37 Z M19,38 L7,38 C6.44771525,38 6,38.4477153 6,39 L6,46 C6,46.5522847 6.44771525,47 7,47 L19,47 C19.5522847,47 20,46.5522847 20,46 L20,39 C20,38.4477153 19.5522847,38 19,38 Z M19,37 C20.1045695,37 21,37.8954305 21,39 L21,46 C21,47.1045695 20.1045695,48 19,48 L7,48 C5.8954305,48 5,47.1045695 5,46 L5,39 C5,37.8954305 5.8954305,37 7,37 L19,37 Z M5.5,50 L20.5,50 C20.7761424,50 21,50.2238576 21,50.5 C21,50.7761424 20.7761424,51 20.5,51 L5.5,51 C5.22385763,51 5,50.7761424 5,50.5 C5,50.2238576 5.22385763,50 5.5,50 Z M5.5,52 L20.5,52 C20.7761424,52 21,52.2238576 21,52.5 C21,52.7761424 20.7761424,53 20.5,53 L5.5,53 C5.22385763,53 5,52.7761424 5,52.5 C5,52.2238576 5.22385763,52 5.5,52 Z M5.5,54 L12.5,54 C12.7761424,54 13,54.2238576 13,54.5 C13,54.7761424 12.7761424,55 12.5,55 L5.5,55 C5.22385763,55 5,54.7761424 5,54.5 C5,54.2238576 5.22385763,54 5.5,54 Z M24.5,50 L39.5,50 C39.7761424,50 40,50.2238576 40,50.5 C40,50.7761424 39.7761424,51 39.5,51 L24.5,51 C24.2238576,51 24,50.7761424 24,50.5 C24,50.2238576 24.2238576,50 24.5,50 Z M24.5,52 L39.5,52 C39.7761424,52 40,52.2238576 40,52.5 C40,52.7761424 39.7761424,53 39.5,53 L24.5,53 C24.2238576,53 24,52.7761424 24,52.5 C24,52.2238576 24.2238576,52 24.5,52 Z M24.5,54 L31.5,54 C31.7761424,54 32,54.2238576 32,54.5 C32,54.7761424 31.7761424,55 31.5,55 L24.5,55 C24.2238576,55 24,54.7761424 24,54.5 C24,54.2238576 24.2238576,54 24.5,54 Z M43.5,50 L58.5,50 C58.7761424,50 59,50.2238576 59,50.5 C59,50.7761424 58.7761424,51 58.5,51 L43.5,51 C43.2238576,51 43,50.7761424 43,50.5 C43,50.2238576 43.2238576,50 43.5,50 Z M43.5,52 L58.5,52 C58.7761424,52 59,52.2238576 59,52.5 C59,52.7761424 58.7761424,53 58.5,53 L43.5,53 C43.2238576,53 43,52.7761424 43,52.5 C43,52.2238576 43.2238576,52 43.5,52 Z M43.5,54 L50.5,54 C50.7761424,54 51,54.2238576 51,54.5 C51,54.7761424 50.7761424,55 50.5,55 L43.5,55 C43.2238576,55 43,54.7761424 43,54.5 C43,54.2238576 43.2238576,54 43.5,54 Z"></path></g></g></svg>