<?xml version="1.0" encoding="UTF-8"?>
<svg width="128pt" height="128pt" version="1.1" viewBox="0 0 128 128" xmlns="http://www.w3.org/2000/svg">
 <path d="m4 14v102h120v-102zm0-4h120c2.2109 0 4 1.7891 4 4v102c0 2.2109-1.7891 4-4 4h-120c-2.2109 0-4-1.7891-4-4v-102c0-2.2109 1.7891-4 4-4zm5 15c-2.2109 0-4-1.7891-4-4s1.7891-4 4-4 4 1.7891 4 4-1.7891 4-4 4zm0-2c1.1055 0 2-0.89453 2-2s-0.89453-2-2-2-2 0.89453-2 2 0.89453 2 2 2zm10 2c-2.2109 0-4-1.7891-4-4s1.7891-4 4-4 4 1.7891 4 4-1.7891 4-4 4zm0-2c1.1055 0 2-0.89453 2-2s-0.89453-2-2-2-2 0.89453-2 2 0.89453 2 2 2zm10 2c-2.2109 0-4-1.7891-4-4s1.7891-4 4-4 4 1.7891 4 4-1.7891 4-4 4zm0-2c1.1055 0 2-0.89453 2-2s-0.89453-2-2-2-2 0.89453-2 2 0.89453 2 2 2zm-25 5h120v4h-120zm10 8h24c2.2109 0 4 1.7891 4 4v14c0 2.2109-1.7891 4-4 4h-24c-2.2109 0-4-1.7891-4-4v-14c0-2.2109 1.7891-4 4-4zm0 2c-1.1055 0-2 0.89453-2 2v14c0 1.1055 0.89453 2 2 2h24c1.1055 0 2-0.89453 2-2v-14c0-1.1055-0.89453-2-2-2zm35 0h68c0.55078 0 1 0.44922 1 1s-0.44922 1-1 1h-68c-0.55078 0-1-0.44922-1-1s0.44922-1 1-1zm0 4h68c0.55078 0 1 0.44922 1 1s-0.44922 1-1 1h-68c-0.55078 0-1-0.44922-1-1s0.44922-1 1-1zm0 4h68c0.55078 0 1 0.44922 1 1s-0.44922 1-1 1h-68c-0.55078 0-1-0.44922-1-1s0.44922-1 1-1zm0 4h68c0.55078 0 1 0.44922 1 1s-0.44922 1-1 1h-68c-0.55078 0-1-0.44922-1-1s0.44922-1 1-1zm0 4h48c0.55078 0 1 0.44922 1 1s-0.44922 1-1 1h-48c-0.55078 0-1-0.44922-1-1s0.44922-1 1-1zm-35 8h24c2.2109 0 4 1.7891 4 4v14c0 2.2109-1.7891 4-4 4h-24c-2.2109 0-4-1.7891-4-4v-14c0-2.2109 1.7891-4 4-4zm0 2c-1.1055 0-2 0.89453-2 2v14c0 1.1055 0.89453 2 2 2h24c1.1055 0 2-0.89453 2-2v-14c0-1.1055-0.89453-2-2-2zm35 0h68c0.55078 0 1 0.44922 1 1s-0.44922 1-1 1h-68c-0.55078 0-1-0.44922-1-1s0.44922-1 1-1zm0 4h68c0.55078 0 1 0.44922 1 1s-0.44922 1-1 1h-68c-0.55078 0-1-0.44922-1-1s0.44922-1 1-1zm0 4h68c0.55078 0 1 0.44922 1 1s-0.44922 1-1 1h-68c-0.55078 0-1-0.44922-1-1s0.44922-1 1-1zm0 4h68c0.55078 0 1 0.44922 1 1s-0.44922 1-1 1h-68c-0.55078 0-1-0.44922-1-1s0.44922-1 1-1zm0 4h48c0.55078 0 1 0.44922 1 1s-0.44922 1-1 1h-48c-0.55078 0-1-0.44922-1-1s0.44922-1 1-1zm-35 8h24c2.2109 0 4 1.7891 4 4v14c0 2.2109-1.7891 4-4 4h-24c-2.2109 0-4-1.7891-4-4v-14c0-2.2109 1.7891-4 4-4zm0 2c-1.1055 0-2 0.89453-2 2v14c0 1.1055 0.89453 2 2 2h24c1.1055 0 2-0.89453 2-2v-14c0-1.1055-0.89453-2-2-2zm35 0h68c0.55078 0 1 0.44922 1 1s-0.44922 1-1 1h-68c-0.55078 0-1-0.44922-1-1s0.44922-1 1-1zm0 4h68c0.55078 0 1 0.44922 1 1s-0.44922 1-1 1h-68c-0.55078 0-1-0.44922-1-1s0.44922-1 1-1zm0 4h68c0.55078 0 1 0.44922 1 1s-0.44922 1-1 1h-68c-0.55078 0-1-0.44922-1-1s0.44922-1 1-1zm0 4h68c0.55078 0 1 0.44922 1 1s-0.44922 1-1 1h-68c-0.55078 0-1-0.44922-1-1s0.44922-1 1-1zm0 4h48c0.55078 0 1 0.44922 1 1s-0.44922 1-1 1h-48c-0.55078 0-1-0.44922-1-1s0.44922-1 1-1z" fill="#fff"/>
</svg>
